<svg width="21" height="16" viewBox="0 0 21 16" fill="none" xmlns="http://www.w3.org/2000/svg">
<path d="M10.1285 4.79346C9.39591 4.79346 8.6933 5.10953 8.17526 5.67214C7.65723 6.23475 7.3662 6.99781 7.3662 7.79346C7.3662 8.58911 7.65723 9.35217 8.17526 9.91478C8.6933 10.4774 9.39591 10.7935 10.1285 10.7935C10.8611 10.7935 11.5637 10.4774 12.0818 9.91478C12.5998 9.35217 12.8908 8.58911 12.8908 7.79346C12.8908 6.99781 12.5998 6.23475 12.0818 5.67214C11.5637 5.10953 10.8611 4.79346 10.1285 4.79346ZM10.1285 12.7935C8.9075 12.7935 7.73649 12.2667 6.87309 11.329C6.0097 10.3913 5.52465 9.11954 5.52465 7.79346C5.52465 6.46737 6.0097 5.19561 6.87309 4.25792C7.73649 3.32024 8.9075 2.79346 10.1285 2.79346C11.3495 2.79346 12.5206 3.32024 13.384 4.25792C14.2473 5.19561 14.7324 6.46737 14.7324 7.79346C14.7324 9.11954 14.2473 10.3913 13.384 11.329C12.5206 12.2667 11.3495 12.7935 10.1285 12.7935ZM10.1285 0.293457C5.52465 0.293457 1.59294 3.40346 0 7.79346C1.59294 12.1835 5.52465 15.2935 10.1285 15.2935C14.7324 15.2935 18.6641 12.1835 20.257 7.79346C18.6641 3.40346 14.7324 0.293457 10.1285 0.293457Z" fill="#545454"/>
</svg>
